# xmcd CD database file
#
# Track frame offsets:
#	150
#	6717
#	26005
#	30682
#	79955
#	108192
#	153962
#	170460
#	190682
#	229772
#
# Disc length: 3602 seconds
#
# Revision: 1
# Processed by: cddbd v1.5.1PL0 Copyright (c) Steve Scherf et al.
# Submitted via: CDex 1.51
#
DISCID=740e100a
DTITLE=Al Kooper | Mike Bloomfield - Filmore East: The Lost Concert Tapes 12/13/68
DYEAR=1968
DGENRE=Blues
TTITLE0=Introductions
TTITLE1=One Way Out
TTITLE2=Mike Bloomfield's Introduction Of Johnny Winter
TTITLE3=It's My Own Fault (Featuring Johnny Winter)
TTITLE4=59th Street Bridge Song (Feelin' Groovy)
TTITLE5=(Please) Tell Me Partner
TTITLE6=That's All Right Mama
TTITLE7=Together Till The End Of Time
TTITLE8=Don't Throw Your Love On Me So Strong
TTITLE9=Season Of The Witch
EXTD=YEAR: 1968
EXTT0=
EXTT1=
EXTT2=
EXTT3=
EXTT4=
EXTT5=
EXTT6=
EXTT7=
EXTT8=
EXTT9=
PLAYORDER=
